<?xml version="1.0" encoding="UTF-8" standalone="no"?>
<svg
   xmlns:dc="http://purl.org/dc/elements/1.1/"
   xmlns:cc="http://creativecommons.org/ns#"
   xmlns:rdf="http://www.w3.org/1999/02/22-rdf-syntax-ns#"
   xmlns:svg="http://www.w3.org/2000/svg"
   xmlns="http://www.w3.org/2000/svg"
   xmlns:sodipodi="http://sodipodi.sourceforge.net/DTD/sodipodi-0.dtd"
   xmlns:inkscape="http://www.inkscape.org/namespaces/inkscape"
   version="1.1"
   id="GraphQL_Logo"
   x="0px"
   y="0px"
   viewBox="0 0 400 400"
   enable-background="new 0 0 400 400"
   xml:space="preserve"
   inkscape:version="0.91 r13725"
   sodipodi:docname="icu.svg"><metadata
     id="metadata3597"><rdf:RDF><cc:Work
         rdf:about=""><dc:format>image/svg+xml</dc:format><dc:type
           rdf:resource="http://purl.org/dc/dcmitype/StillImage" /><dc:title /></cc:Work></rdf:RDF></metadata><defs
     id="defs3595" /><sodipodi:namedview
     pagecolor="#ffffff"
     bordercolor="#666666"
     borderopacity="1"
     objecttolerance="10"
     gridtolerance="10"
     guidetolerance="10"
     inkscape:pageopacity="0"
     inkscape:pageshadow="2"
     inkscape:window-width="1920"
     inkscape:window-height="1036"
     id="namedview3593"
     showgrid="false"
     inkscape:zoom="1.635"
     inkscape:cx="233.33333"
     inkscape:cy="200"
     inkscape:window-x="0"
     inkscape:window-y="0"
     inkscape:window-maximized="0"
     inkscape:current-layer="GraphQL_Logo" /><path
     style="fill:#000000"
     d="M 190.89941,392.6094 C 117.91219,388.7287 53.739007,346.49146 21.773227,281.29467 7.9730453,253.14809 1.6542339,225.66088 1.6542339,193.77588 c 0,-49.18606 16.7633331,-94.086781 48.8015761,-130.715418 l 9.255677,-10.58183 10.009769,9.957759 c 5.505358,5.476769 10.009758,10.435652 10.009758,11.019743 0,0.58409 -2.927518,4.224038 -6.505587,8.088777 -20.456478,22.095449 -35.862899,55.260049 -40.651232,87.507779 -7.326239,49.33971 7.53473,98.85379 41.056734,136.79371 32.030631,36.252 77.219711,56.4655 126.233671,56.4655 84.04088,0 153.71958,-59.74166 167.29221,-143.43425 5.9212,-36.5118 -2.4242,-79.59937 -21.58616,-111.45001 -5.5738,-9.26468 -16.88516,-24.238046 -21.85364,-28.928719 -2.04536,-1.930983 -3.71882,-4.094499 -3.71882,-4.807821 0,-0.713322 4.48862,-5.762252 9.97471,-11.219846 l 9.97472,-9.922897 7.70207,8.753929 c 52.68206,59.876774 65.41748,142.681564 32.96798,214.355694 -16.6006,36.66723 -45.66423,69.11128 -80.20236,89.53079 -32.35396,19.12818 -73.18778,29.35217 -109.5159,27.42063 z m -7.76984,-59.15011 c -29.31603,-3.73667 -58.42633,-17.5896 -79.98286,-38.062 C 65.590322,259.72966 50.321631,206.26505 63.594264,156.90102 77.932632,103.57326 121.55278,64.018493 176.60184,54.425686 c 16.1826,-2.81997 41.83908,-1.82113 57.39094,2.234301 21.3257,5.561063 39.93964,15.158515 56.61851,29.192819 l 9.31785,7.840432 -9.53544,9.535442 -9.53545,9.53545 -9.13448,-7.25884 C 249.8549,88.126905 227.16639,80.108102 199.8646,80.108102 c -14.11954,0 -25.0447,1.776602 -37.42344,6.085656 -26.90367,9.365196 -50.42485,29.735672 -63.478454,54.975412 -22.207312,42.93884 -14.829433,95.51604 18.254484,130.08756 17.64789,18.4414 36.11382,28.69636 60.72104,33.72107 33.57714,6.85636 70.48241,-2.80803 95.91805,-25.11805 l 7.05157,-6.18505 10.06003,9.95684 10.06003,9.95682 -6.35337,5.76566 c -28.98496,26.30378 -71.28435,39.23697 -111.54497,34.10527 z m 1.79304,-139.68341 0,-78.8937 14.94199,0 14.94199,0 0,78.8937 0,78.8937 -14.94199,0 -14.94199,0 0,-78.8937 z"
     id="path4340"
     inkscape:connector-curvature="0"
     inkscape:transform-center-y="28.513152" /></svg>