<svg
  width="218"
  height="218"
  viewBox="0 0 218 218"
  xmlns="http://www.w3.org/2000/svg"
  xmlns:xlink="http://www.w3.org/1999/xlink"
>
  <defs>
    <path id="b" d="M0 0h216v216H0z" />
    <path
      d="M128.128 197h-24.426l-12.036-22.892H75.618V197H54.024v-82.718h37.17c21.948 0 34.456 10.62 34.456 29.028 0 12.508-5.192 21.712-14.75 26.668L128.128 197zm-52.51-65.49v25.37h15.694c8.732 0 13.806-4.484 13.806-12.862 0-8.142-5.074-12.508-13.806-12.508H75.618zm63.838-17.228h65.254v17.228h-43.66v15.458h39.412v17.11l-39.412.118v15.576h44.84V197h-66.434v-82.718z"
      id="c"
    />
  </defs>
  <g>
    <use fill="#DD4B39" xlink:href="#b" />
    <use fill="#FFF" xlink:href="#c" />
  </g>
</svg>
