<?xml version="1.0" encoding="utf-8"?>
<!-- Svg Vector Icons : http://www.onlinewebfonts.com/icon -->
<!DOCTYPE svg PUBLIC "-//W3C//DTD SVG 1.1//EN" "http://www.w3.org/Graphics/SVG/1.1/DTD/svg11.dtd">
<svg version="1.1" xmlns="http://www.w3.org/2000/svg" xmlns:xlink="http://www.w3.org/1999/xlink" x="0px" y="0px" viewBox="0 0 1000 1000" enable-background="new 0 0 1000 1000" xml:space="preserve">
<metadata> Svg Vector Icons : http://www.onlinewebfonts.com/icon </metadata>
<g><g id="_x35_151e0c8492e5103c096af88a51fee66"><path d="M795.7,10c0,77.8-375.7,137.8-591.3,151.9v221.4c91.1,5.9,210.6,20.5,318.4,40.8c-107.8,20.3-227.4,34.5-318.4,40.4v221.4c91,6,210.4,20.2,318.1,40.5c-107.7,20.2-227.1,34.5-318.1,40.5V990l107-15.4c199.3-30,419.2-86.7,484.3-136.4V614.5c0-13.9-25.5-29-66.6-44.5c28.8-11.6,51.8-23.3,66.6-34.6V312.3c0-13.9-25.2-29.1-65.8-44.5c28.5-11.5,51.1-23.4,65.8-34.6V10L795.7,10z M729.2,593.9c29.5,11.7,40.1,19.6,43.6,22.9c-2.4,4.7-11.4,14.5-37,26.9c-4.1,2-8.6,3.9-12.5,5.6l0,0.1c-44.3,19-113.2,37.7-200.9,54.4c-43-8-89.2-15.3-135.8-21.6C517.5,658.8,646.9,626,729.2,593.9z M729.9,291.6c29,11.6,39.4,19.5,42.9,22.9c-1.8,3.6-7.5,10.3-21.9,19l-0.1-0.1c-2.8,1.7-6.2,3.6-9.4,5.3c-42.2,22-117.5,43.7-217.9,62.8c-43.3-8.1-89.6-15.4-136.2-21.7C519,356.5,647,324,729.9,291.6z"/></g></g>
</svg>